<mxfile host="app.diagrams.net" agent="Mozilla/5.0 (Windows NT 10.0; Win64; x64) AppleWebKit/537.36 (KHTML, like Gecko) Chrome/141.0.0.0 Safari/537.36" version="28.2.8">
  <diagram name="Pagina-1" id="KSIQo95Mh7Gcz1AjS-s_">
    <mxGraphModel dx="815" dy="493" grid="1" gridSize="10" guides="1" tooltips="1" connect="1" arrows="1" fold="1" page="1" pageScale="1" pageWidth="827" pageHeight="1169" math="0" shadow="0">
      <root>
        <mxCell id="0" />
        <mxCell id="1" parent="0" />
        <mxCell id="7ACUWjWO8T6iTnsryJQ7-1" value="Actor" style="shape=umlActor;verticalLabelPosition=bottom;verticalAlign=top;html=1;outlineConnect=0;" vertex="1" parent="1">
          <mxGeometry x="40" y="80" width="40" height="80" as="geometry" />
        </mxCell>
        <mxCell id="7ACUWjWO8T6iTnsryJQ7-3" value="" style="rounded=0;whiteSpace=wrap;html=1;" vertex="1" parent="1">
          <mxGeometry x="120" y="60" width="630" height="490" as="geometry" />
        </mxCell>
        <mxCell id="7ACUWjWO8T6iTnsryJQ7-4" value="Personalizzazione" style="text;html=1;whiteSpace=wrap;strokeColor=none;fillColor=none;align=center;verticalAlign=middle;rounded=0;" vertex="1" parent="1">
          <mxGeometry x="120" y="20" width="100" height="30" as="geometry" />
        </mxCell>
        <mxCell id="7ACUWjWO8T6iTnsryJQ7-6" style="rounded=0;orthogonalLoop=1;jettySize=auto;html=1;exitX=0;exitY=0.5;exitDx=0;exitDy=0;endArrow=none;endFill=0;" edge="1" parent="1" source="7ACUWjWO8T6iTnsryJQ7-5" target="7ACUWjWO8T6iTnsryJQ7-1">
          <mxGeometry relative="1" as="geometry" />
        </mxCell>
        <mxCell id="7ACUWjWO8T6iTnsryJQ7-5" value="Personalizzazione suono notifiche" style="ellipse;whiteSpace=wrap;html=1;" vertex="1" parent="1">
          <mxGeometry x="160" y="70" width="120" height="50" as="geometry" />
        </mxCell>
        <mxCell id="7ACUWjWO8T6iTnsryJQ7-8" style="rounded=0;orthogonalLoop=1;jettySize=auto;html=1;exitX=0;exitY=0;exitDx=0;exitDy=0;endArrow=none;endFill=0;" edge="1" parent="1" source="7ACUWjWO8T6iTnsryJQ7-7" target="7ACUWjWO8T6iTnsryJQ7-1">
          <mxGeometry relative="1" as="geometry" />
        </mxCell>
        <mxCell id="7ACUWjWO8T6iTnsryJQ7-7" value="Personalizzazione font e testo" style="ellipse;whiteSpace=wrap;html=1;" vertex="1" parent="1">
          <mxGeometry x="220" y="180" width="120" height="50" as="geometry" />
        </mxCell>
        <mxCell id="7ACUWjWO8T6iTnsryJQ7-10" style="edgeStyle=none;shape=connector;rounded=0;orthogonalLoop=1;jettySize=auto;html=1;exitX=0;exitY=0.5;exitDx=0;exitDy=0;strokeColor=default;align=center;verticalAlign=middle;fontFamily=Helvetica;fontSize=11;fontColor=default;labelBackgroundColor=default;endArrow=none;endFill=0;" edge="1" parent="1" source="7ACUWjWO8T6iTnsryJQ7-9" target="7ACUWjWO8T6iTnsryJQ7-1">
          <mxGeometry relative="1" as="geometry" />
        </mxCell>
        <mxCell id="7ACUWjWO8T6iTnsryJQ7-9" value="Personalizzazione colori" style="ellipse;whiteSpace=wrap;html=1;fontFamily=Helvetica;fontSize=11;fontColor=default;labelBackgroundColor=default;" vertex="1" parent="1">
          <mxGeometry x="240" y="110" width="130" height="60" as="geometry" />
        </mxCell>
        <mxCell id="7ACUWjWO8T6iTnsryJQ7-12" style="edgeStyle=none;shape=connector;rounded=0;orthogonalLoop=1;jettySize=auto;html=1;exitX=0.5;exitY=0;exitDx=0;exitDy=0;strokeColor=default;align=center;verticalAlign=middle;fontFamily=Helvetica;fontSize=11;fontColor=default;labelBackgroundColor=default;endArrow=none;endFill=0;" edge="1" parent="1" source="7ACUWjWO8T6iTnsryJQ7-11" target="7ACUWjWO8T6iTnsryJQ7-1">
          <mxGeometry relative="1" as="geometry" />
        </mxCell>
        <mxCell id="7ACUWjWO8T6iTnsryJQ7-11" value="Drag-&amp;amp;-drop" style="ellipse;whiteSpace=wrap;html=1;fontFamily=Helvetica;fontSize=11;fontColor=default;labelBackgroundColor=default;" vertex="1" parent="1">
          <mxGeometry x="135" y="220" width="85" height="50" as="geometry" />
        </mxCell>
        <mxCell id="7ACUWjWO8T6iTnsryJQ7-16" style="edgeStyle=none;shape=connector;rounded=0;orthogonalLoop=1;jettySize=auto;html=1;exitX=0;exitY=0;exitDx=0;exitDy=0;entryX=1;entryY=1;entryDx=0;entryDy=0;strokeColor=default;align=center;verticalAlign=middle;fontFamily=Helvetica;fontSize=11;fontColor=default;labelBackgroundColor=default;endArrow=classic;endFill=1;dashed=1;" edge="1" parent="1" source="7ACUWjWO8T6iTnsryJQ7-15" target="7ACUWjWO8T6iTnsryJQ7-7">
          <mxGeometry relative="1" as="geometry" />
        </mxCell>
        <mxCell id="7ACUWjWO8T6iTnsryJQ7-17" value="&amp;lt;&amp;lt;Extend&amp;gt;&amp;gt;" style="edgeLabel;html=1;align=center;verticalAlign=middle;resizable=0;points=[];fontFamily=Helvetica;fontSize=11;fontColor=default;labelBackgroundColor=default;" vertex="1" connectable="0" parent="7ACUWjWO8T6iTnsryJQ7-16">
          <mxGeometry x="-0.0491" y="2" relative="1" as="geometry">
            <mxPoint as="offset" />
          </mxGeometry>
        </mxCell>
        <mxCell id="7ACUWjWO8T6iTnsryJQ7-15" value="Dimensioni testo" style="ellipse;whiteSpace=wrap;html=1;fontFamily=Helvetica;fontSize=11;fontColor=default;labelBackgroundColor=default;" vertex="1" parent="1">
          <mxGeometry x="370" y="260" width="90" height="40" as="geometry" />
        </mxCell>
      </root>
    </mxGraphModel>
  </diagram>
</mxfile>
